# xmcd
#
# Track frame offsets:
#	183
#	14208
#	26303
#	41178
#	55423
#	63673
#	79893
#	94383
#	107310
#	117988
#	132088
#	143788
#	154758
#	166033
#	179478
#	192120
#	203108
#	216750
#	228108
#	242055
#
# Disc length: 3379 seconds
#
# Revision: 2
# Processed by: cddbd v1.4PL0 Copyright (c) Steve Scherf et al.
# Submitted via: EasyCDDAExtractor 5.1.0
#
DISCID=160d3114
DTITLE=Glen Campbell - The Best Of Glen Campbell
DYEAR=1900
DGENRE=Country
TTITLE0=Country Boy (You Got Your Feet In L.A.)
TTITLE1=Galveston
TTITLE2=Your Cheatin' Heart
TTITLE3=Tennesse Home
TTITLE4=Twelve String Special
TTITLE5=California
TTITLE6=Rhinestone Cowboy
TTITLE7=Country Girl
TTITLE8=500 Miles
TTITLE9=Gentle On My Mind
TTITLE10=Arkansas
TTITLE11=I'm So Lonesome I Could Cry
TTITLE12=True Grit
TTITLE13=Oklahoma Sunday Morning
TTITLE14=Southern Nights
TTITLE15=It's Only Make Believe
TTITLE16=Honey Come Back
TTITLE17=Everything A Man Could Ever Need
TTITLE18=Wichita Lineman
TTITLE19=All I Have To Do Is Dream (With Bobbie Gentry)
EXTD=
EXTT0=
EXTT1=
EXTT2=
EXTT3=
EXTT4=
EXTT5=
EXTT6=
EXTT7=
EXTT8=
EXTT9=
EXTT10=
EXTT11=
EXTT12=
EXTT13=
EXTT14=
EXTT15=
EXTT16=
EXTT17=
EXTT18=
EXTT19=
PLAYORDER=
